<svg width="20" height="20" viewBox="0 0 20 20" fill="none" xmlns="http://www.w3.org/2000/svg">
<g clip-path="url(#clip0_3759_740)">
<path d="M12.9167 1.66666C13.7384 1.66609 14.5494 1.85246 15.2884 2.21166L12.0834 5.41666V7.91666H14.5834L17.7884 4.71166C18.2709 5.70108 18.4405 6.81403 18.2745 7.90224C18.1086 8.99046 17.615 10.0023 16.8596 10.803C16.1042 11.6036 15.1228 12.1552 14.046 12.384C12.9693 12.6129 11.8484 12.5083 10.8326 12.0842L4.58341 18.3333L1.66675 15.4167L7.91591 9.16749C7.57273 8.34425 7.43815 7.449 7.52412 6.56124C7.61009 5.67348 7.91394 4.82068 8.40871 4.07858C8.90347 3.33648 9.57383 2.72804 10.3603 2.30728C11.1467 1.88652 12.0248 1.66646 12.9167 1.66666Z" stroke="black" stroke-width="1.5"/>
</g>
<defs>
<clipPath id="clip0_3759_740">
<rect width="20" height="20" fill="white"/>
</clipPath>
</defs>
</svg>
