<svg width="16" height="16" viewBox="0 0 16 16" fill="none" xmlns="http://www.w3.org/2000/svg">
<g clip-path="url(#clip0_3750_227)">
<path d="M10.6666 10.36C12.1505 10.7712 13.5194 11.5195 14.6666 12.5467L12.9999 14.6667L9.99992 13L10.6666 10.36ZM10.6666 10.36C9.79797 10.1204 8.90097 9.99932 7.99992 10C7.07658 10 6.18192 10.1253 5.33325 10.36M5.33325 10.36C3.84935 10.7712 2.48045 11.5195 1.33325 12.5467L2.99992 14.6667L5.99992 13L5.33325 10.36ZM1.33325 9.66667V7.00001H2.83459C2.96059 6.51067 3.15459 6.04867 3.40525 5.62401L2.34325 4.56201L4.22859 2.67667L5.29058 3.73867C5.7203 3.48502 6.18348 3.29292 6.66658 3.16801V1.66667H9.33325V3.16801C9.82258 3.29401 10.2846 3.48801 10.7093 3.73867L11.7713 2.67667L13.6566 4.56201L12.5946 5.62401C12.8459 6.04867 13.0393 6.51067 13.1653 7.00001H14.6666V9.66667" stroke="#848484" stroke-width="1.5"/>
<path d="M10 8.33334C10 7.80291 9.78929 7.2942 9.41421 6.91913C9.03914 6.54406 8.53043 6.33334 8 6.33334C7.46957 6.33334 6.96086 6.54406 6.58579 6.91913C6.21071 7.2942 6 7.80291 6 8.33334" stroke="#848484" stroke-width="1.5"/>
</g>
<defs>
<clipPath id="clip0_3750_227">
<rect width="16" height="16" fill="white"/>
</clipPath>
</defs>
</svg>
