<svg width="16" height="16" viewBox="0 0 16 16" fill="none" xmlns="http://www.w3.org/2000/svg">
<path d="M1.33325 10.6273L3.89392 7.89266M6.87792 7.68866L8.51992 9.22066M10.6833 8.762L11.8666 5.51M5.31325 5C5.5518 4.9954 5.78887 5.03841 6.01059 5.12652C6.23232 5.21463 6.43425 5.34607 6.60457 5.51314C6.7749 5.68021 6.9102 5.87958 7.00257 6.09956C7.09493 6.31955 7.14251 6.55574 7.14251 6.79433C7.14251 7.03292 7.09493 7.26912 7.00257 7.4891C6.9102 7.70909 6.7749 7.90845 6.60457 8.07552C6.43425 8.2426 6.23232 8.37403 6.01059 8.46214C5.78887 8.55025 5.5518 8.59326 5.31325 8.58866C4.83728 8.58866 4.3808 8.39958 4.04423 8.06302C3.70767 7.72645 3.51859 7.26997 3.51859 6.794C3.51859 6.31802 3.70767 5.86154 4.04423 5.52498C4.3808 5.18841 4.83728 5 5.31325 5ZM12.3866 2C12.6251 1.9954 12.8622 2.03841 13.0839 2.12652C13.3056 2.21463 13.5076 2.34606 13.6779 2.51314C13.8482 2.68021 13.9835 2.87957 14.0759 3.09956C14.1683 3.31955 14.2158 3.55574 14.2158 3.79433C14.2158 4.03292 14.1683 4.26912 14.0759 4.4891C13.9835 4.70909 13.8482 4.90845 13.6779 5.07552C13.5076 5.2426 13.3056 5.37403 13.0839 5.46214C12.8622 5.55025 12.6251 5.59326 12.3866 5.58866C11.9167 5.57961 11.4691 5.38658 11.14 5.05106C10.8109 4.71555 10.6265 4.26432 10.6265 3.79433C10.6265 3.32435 10.8109 2.87311 11.14 2.5376C11.4691 2.20208 11.9167 2.00906 12.3866 2ZM9.89192 8.58866C10.3679 8.58866 10.8244 8.77774 11.1609 9.11431C11.4975 9.45088 11.6866 9.90736 11.6866 10.3833C11.6866 10.8593 11.4975 11.3158 11.1609 11.6524C10.8244 11.9889 10.3679 12.178 9.89192 12.178C9.41594 12.178 8.95946 11.9889 8.6229 11.6524C8.28633 11.3158 8.09725 10.8593 8.09725 10.3833C8.09725 9.90736 8.28633 9.45088 8.6229 9.11431C8.95946 8.77774 9.41594 8.58866 9.89192 8.58866Z" stroke="#848484" stroke-width="1.5"/>
<path d="M1.33325 1.33333V14.6667H14.6666" stroke="#848484" stroke-width="1.5"/>
</svg>
