<svg width="24" height="24" viewBox="0 0 24 24" fill="none" xmlns="http://www.w3.org/2000/svg">
<g clip-path="url(#clip0_3704_2)">
<path d="M20 12.5V5C20 4.72917 19.901 4.49479 19.7031 4.29688C19.5052 4.09896 19.2708 4 19 4H11.5C11.0625 4 10.7552 4.20312 10.5781 4.60938C10.401 5.03646 10.474 5.40104 10.7969 5.70312L13.0469 7.95312L4.70312 16.2969C4.50521 16.4948 4.40625 16.7292 4.40625 17C4.40625 17.2708 4.50521 17.5052 4.70312 17.7031L6.29688 19.2969C6.49479 19.4948 6.72917 19.5938 7 19.5938C7.27083 19.5938 7.50521 19.4948 7.70312 19.2969L16.0469 10.9531L18.2969 13.2031C18.4844 13.401 18.7188 13.5 19 13.5C19.125 13.5 19.2552 13.474 19.3906 13.4219C19.7969 13.2448 20 12.9375 20 12.5ZM24 4.5V19.5C24 20.7396 23.5599 21.7995 22.6797 22.6797C21.7995 23.5599 20.7396 24 19.5 24H4.5C3.26042 24 2.20052 23.5599 1.32031 22.6797C0.440104 21.7995 0 20.7396 0 19.5V4.5C0 3.26042 0.440104 2.20052 1.32031 1.32031C2.20052 0.440104 3.26042 0 4.5 0H19.5C20.7396 0 21.7995 0.440104 22.6797 1.32031C23.5599 2.20052 24 3.26042 24 4.5Z" fill="white"/>
</g>
<defs>
<clipPath id="clip0_3704_2">
<rect width="24" height="24" fill="white"/>
</clipPath>
</defs>
</svg>
