<svg width="21" height="18" viewBox="0 0 21 18" fill="none" xmlns="http://www.w3.org/2000/svg">
<path d="M2 2L10 7L18 2H2ZM2 16C1.45 16 0.979333 15.8043 0.588 15.413C0.196667 15.0217 0.000666667 14.5507 0 14V2C0 1.45 0.196 0.979333 0.588 0.588C0.98 0.196666 1.45067 0.000666667 2 0H18C18.55 0 19.021 0.196 19.413 0.588C19.805 0.98 20.0007 1.45067 20 2V7C20 7.28333 19.904 7.521 19.712 7.713C19.52 7.905 19.2827 8.00067 19 8C18.7173 7.99933 18.48 7.90333 18.288 7.712C18.096 7.52067 18 7.28333 18 7V4L10.525 8.675C10.475 8.70833 10.3 8.75833 10 8.825C9.91667 8.825 9.82933 8.81267 9.738 8.788C9.64667 8.76333 9.559 8.72567 9.475 8.675L2 4V14H7.5C7.78333 14 8.021 14.096 8.213 14.288C8.405 14.48 8.50067 14.7173 8.5 15C8.49933 15.2827 8.40333 15.5203 8.212 15.713C8.02067 15.9057 7.78333 16.0013 7.5 16H2ZM13.95 15.2L18.9 10.25C19.0833 10.0667 19.3167 9.975 19.6 9.975C19.8833 9.975 20.1167 10.0667 20.3 10.25C20.4833 10.4333 20.575 10.6667 20.575 10.95C20.575 11.2333 20.4833 11.4667 20.3 11.65L14.65 17.3C14.45 17.5 14.2167 17.6 13.95 17.6C13.6833 17.6 13.45 17.5 13.25 17.3L10.4 14.45C10.2167 14.2667 10.125 14.0333 10.125 13.75C10.125 13.4667 10.2167 13.2333 10.4 13.05C10.5833 12.8667 10.8167 12.775 11.1 12.775C11.3833 12.775 11.6167 12.8667 11.8 13.05L13.95 15.2Z" fill="black"/>
</svg>
